<svg width="24" height="24" viewBox="0 0 24 24" fill="none" xmlns="http://www.w3.org/2000/svg">
<g id="svgexport-6 - 2022-01-24T103541.843 1">
<g id="Group">
<g id="_x30_1._Facebook">
<path id="Icon_11_" d="M9.88 13.248C9.808 13.248 8.224 13.248 7.504 13.248C7.12 13.248 7 13.104 7 12.744C7 11.784 7 10.8 7 9.83995C7 9.45595 7.144 9.33595 7.504 9.33595H9.88C9.88 9.26395 9.88 7.87195 9.88 7.22395C9.88 6.26395 10.048 5.35195 10.528 4.51195C11.032 3.64795 11.752 3.07195 12.664 2.73595C13.264 2.51995 13.864 2.42395 14.512 2.42395H16.864C17.2 2.42395 17.344 2.56795 17.344 2.90395V5.63995C17.344 5.97595 17.2 6.11995 16.864 6.11995C16.216 6.11995 15.568 6.11995 14.92 6.14395C14.272 6.14395 13.936 6.45595 13.936 7.12795C13.912 7.84795 13.936 8.54395 13.936 9.28795H16.72C17.104 9.28795 17.248 9.43195 17.248 9.81595V12.72C17.248 13.104 17.128 13.224 16.72 13.224C15.856 13.224 14.008 13.224 13.936 13.224V21.048C13.936 21.4559 13.816 21.6 13.384 21.6C12.376 21.6 11.392 21.6 10.384 21.6C10.024 21.6 9.88 21.456 9.88 21.096C9.88 18.576 9.88 13.32 9.88 13.248Z" fill="white"/>
</g>
</g>
</g>
</svg>
