<svg width="23" height="23" viewBox="0 0 23 23" fill="none" xmlns="http://www.w3.org/2000/svg">
<g id="instagram">
<path id="Vector" d="M17.6008 0.857422H4.98853C2.64624 0.857422 0.747803 2.75586 0.747803 5.09814V17.4028C0.747803 19.7451 2.64624 21.6436 4.98853 21.6436H17.6008C19.9431 21.6436 21.8416 19.7451 21.8416 17.4028V5.09814C21.8416 2.75586 19.9431 0.857422 17.6008 0.857422ZM11.2947 16.2163C8.55249 16.2163 6.32886 13.9927 6.32886 11.2505C6.32886 8.5083 8.55249 6.28467 11.2947 6.28467C14.0369 6.28467 16.2605 8.5083 16.2605 11.2505C16.2605 13.9927 14.0369 16.2163 11.2947 16.2163ZM17.6975 6.15723C17.113 6.15723 16.6384 5.68262 16.6384 5.09814C16.6384 4.51367 17.113 4.03906 17.6975 4.03906C18.282 4.03906 18.7566 4.51367 18.7566 5.09814C18.7566 5.68262 18.282 6.15723 17.6975 6.15723Z" fill="white"/>
</g>
</svg>
