<svg width="37" height="55" viewBox="0 0 37 55" fill="none" xmlns="http://www.w3.org/2000/svg">
<g id="Group 1820545601">
<path id="Vector" d="M18.5 2.19738e-06C28.7196 3.0908e-06 37 8.51509 37 18.9581L37 36.0954C37 46.5385 28.7195 55 18.5 55C8.28045 55 -3.07497e-06 46.5385 -2.16201e-06 36.0954L-6.63817e-07 18.9581C2.49143e-07 8.51509 8.28046 1.30395e-06 18.5 2.19738e-06ZM18.5 50.4479C26.2564 50.4479 32.5453 44.0214 32.5453 36.0954L32.5453 18.9581C32.5453 11.0321 26.2564 4.60565 18.5 4.60565C10.7436 4.60565 4.45468 11.0321 4.45468 18.9581L4.45468 36.0954C4.45467 44.0214 10.7436 50.4479 18.5 50.4479Z" fill="white"/>
<path id="Vector_2" d="M18.5 10C20.3721 10 22 12.1692 22 13.6462L22 20.3538C22 21.7692 20.4535 24 18.5 24C16.5465 24 15 21.8308 15 20.3538L15 13.6462C15 12.1692 16.5465 10 18.5 10Z" fill="white"/>
</g>
</svg>
