<svg width="24" height="24" viewBox="0 0 24 24" fill="none" xmlns="http://www.w3.org/2000/svg">
<g id="Snapchat">
<path id="Vector" d="M22.0884 16.9347C19.2808 16.4653 18.0155 13.544 17.9643 13.42L17.9525 13.396C17.8095 13.1 17.7753 12.856 17.8541 12.6707C18.0077 12.3053 18.5957 12.116 18.9842 11.9907C19.0971 11.9547 19.2034 11.92 19.2913 11.8853C19.6746 11.732 19.9476 11.5653 20.1288 11.3773C20.344 11.152 20.386 10.936 20.3834 10.796C20.3768 10.4547 20.1196 10.1507 19.7087 10.0027C19.5634 9.94388 19.4084 9.914 19.252 9.91467C19.1056 9.91258 18.9606 9.9426 18.8267 10.0027C18.4986 10.1587 18.2045 10.244 17.9512 10.256C17.8514 10.2532 17.7531 10.2315 17.6611 10.192L17.6861 9.78L17.69 9.71867C17.7806 8.27467 17.8921 6.47867 17.4222 5.412C17.1199 4.70905 16.6831 4.0741 16.1372 3.544C15.687 3.11363 15.167 2.76541 14.6002 2.51467C13.8436 2.17934 13.0277 2.00422 12.2022 2L12.1497 2L11.7887 2.004C11.3228 2.004 10.3895 2.07067 9.38804 2.51867C8.82289 2.769 8.30465 3.1168 7.85627 3.54667C7.3131 4.0764 6.8782 4.70984 6.57652 5.41067C6.10662 6.476 6.21819 8.272 6.30745 9.71467V9.71733L6.33632 10.1907C6.22748 10.2367 6.11031 10.259 5.99243 10.256C5.72729 10.256 5.41228 10.1707 5.05657 10.0013C4.94478 9.95039 4.82338 9.92491 4.70087 9.92667C4.47946 9.92895 4.26258 9.99059 4.07215 10.1053C3.82801 10.2507 3.6705 10.4547 3.62719 10.6827C3.59963 10.832 3.60094 11.1293 3.92645 11.4307C4.10628 11.596 4.36879 11.7493 4.70874 11.8853C4.798 11.9213 4.90431 11.9547 5.01588 11.9907C5.4044 12.116 5.99374 12.3053 6.14731 12.6707C6.22476 12.856 6.19063 13.1 6.04756 13.396L6.03706 13.42C5.76293 14.0215 5.4068 14.5807 4.97913 15.0813C4.61015 15.5229 4.18046 15.9082 3.70332 16.2253C3.16057 16.5843 2.55056 16.8254 1.91167 16.9333C1.79195 16.9529 1.68366 17.017 1.60776 17.113C1.53186 17.2091 1.49376 17.3304 1.50083 17.4533C1.50477 17.5267 1.52183 17.6 1.55202 17.6707C1.65309 17.9093 1.88542 18.112 2.26343 18.2893C2.72546 18.5067 3.41587 18.6893 4.3176 18.832C4.36354 18.92 4.41079 19.14 4.4436 19.2907C4.47773 19.4507 4.51317 19.616 4.56436 19.7907C4.61949 19.98 4.76125 20.2067 5.12745 20.2067C5.26658 20.2067 5.4254 20.1747 5.61048 20.1387C5.88086 20.0853 6.25101 20.012 6.71172 20.012C6.96767 20.012 7.23281 20.0347 7.49926 20.08C8.01378 20.1667 8.45743 20.484 8.97064 20.852C9.72143 21.3907 10.572 22 11.8714 22L11.9777 21.996C12.0197 21.9987 12.0735 22 12.1287 22C13.4281 22 14.2787 21.3907 15.0294 20.8533L15.0308 20.852C15.544 20.4853 15.9876 20.168 16.5021 20.0813C16.7686 20.036 17.0337 20.0133 17.2897 20.0133C17.7307 20.0133 18.0798 20.0707 18.3909 20.132C18.5944 20.172 18.7519 20.192 18.8739 20.192H18.8976C19.0202 20.1975 19.1409 20.1598 19.2392 20.0852C19.3376 20.0105 19.4075 19.9037 19.437 19.7827C19.4832 19.6189 19.5234 19.4534 19.5578 19.2867C19.588 19.1453 19.6379 18.9187 19.6825 18.8307C20.5842 18.6867 21.2746 18.5053 21.7366 18.288C22.1134 18.1107 22.3457 17.9093 22.4467 17.672C22.4771 17.6025 22.4949 17.5279 22.4992 17.452C22.5059 17.3294 22.4676 17.2086 22.3918 17.1131C22.3159 17.0175 22.2078 16.954 22.0884 16.9347Z" fill="white"/>
</g>
</svg>
