<svg width="24" height="24" viewBox="0 0 24 24" fill="none" xmlns="http://www.w3.org/2000/svg">
<g id="Frame">
<g id="Group">
<g id="Group 1820548114">
<g id="Subtract">
<mask id="path-1-outside-1_79_1149" maskUnits="userSpaceOnUse" x="2" y="3" width="20" height="18" fill="black">
<rect fill="white" x="2" y="3" width="20" height="18"/>
<path d="M3.04311 4L9.884 13.1467L3 20.5835H4.54943L10.5765 14.0724L15.446 20.5835H20.7184L13.4925 10.9224L19.9002 4H18.3507L12.8003 9.99644L8.31553 4H3.04311ZM5.32162 5.14119H7.74375L18.4396 19.4423H16.0175L5.32162 5.14119Z"/>
</mask>
<path d="M3.04311 4L9.884 13.1467L3 20.5835H4.54943L10.5765 14.0724L15.446 20.5835H20.7184L13.4925 10.9224L19.9002 4H18.3507L12.8003 9.99644L8.31553 4H3.04311ZM5.32162 5.14119H7.74375L18.4396 19.4423H16.0175L5.32162 5.14119Z" fill="white"/>
<path d="M3.04311 4V3.8H2.64379L2.88295 4.11978L3.04311 4ZM9.884 13.1467L10.0308 13.2826L10.1439 13.1604L10.0442 13.027L9.884 13.1467ZM3 20.5835L2.85323 20.4476L2.54233 20.7835H3V20.5835ZM4.54943 20.5835V20.7835H4.63683L4.69621 20.7194L4.54943 20.5835ZM10.5765 14.0724L10.7367 13.9526L10.5928 13.7603L10.4297 13.9365L10.5765 14.0724ZM15.446 20.5835L15.2859 20.7033L15.3458 20.7835H15.446V20.5835ZM20.7184 20.5835V20.7835H21.1178L20.8786 20.4637L20.7184 20.5835ZM13.4925 10.9224L13.3457 10.7865L13.2326 10.9087L13.3323 11.0421L13.4925 10.9224ZM19.9002 4L20.0469 4.13586L20.3578 3.8H19.9002V4ZM18.3507 4V3.8H18.2633L18.204 3.86414L18.3507 4ZM12.8003 9.99644L12.6401 10.1162L12.784 10.3085L12.9471 10.1323L12.8003 9.99644ZM8.31553 4L8.47569 3.88021L8.4157 3.8H8.31553V4ZM5.32162 5.14119V4.94119H4.92229L5.16146 5.26097L5.32162 5.14119ZM7.74375 5.14119L7.90391 5.0214L7.84391 4.94119H7.74375V5.14119ZM18.4396 19.4423V19.6423H18.839L18.5998 19.3225L18.4396 19.4423ZM16.0175 19.4423L15.8573 19.5621L15.9173 19.6423H16.0175V19.4423ZM2.88295 4.11978L9.72383 13.2665L10.0442 13.027L3.20328 3.88022L2.88295 4.11978ZM9.73723 13.0109L2.85323 20.4476L3.14677 20.7194L10.0308 13.2826L9.73723 13.0109ZM3 20.7835H4.54943V20.3835H3V20.7835ZM4.69621 20.7194L10.7233 14.2082L10.4297 13.9365L4.40266 20.4476L4.69621 20.7194ZM10.4163 14.1921L15.2859 20.7033L15.6062 20.4637L10.7367 13.9526L10.4163 14.1921ZM15.446 20.7835H20.7184V20.3835H15.446V20.7835ZM20.8786 20.4637L13.6527 10.8026L13.3323 11.0421L20.5583 20.7033L20.8786 20.4637ZM13.6393 11.0582L20.0469 4.13586L19.7534 3.86414L13.3457 10.7865L13.6393 11.0582ZM19.9002 3.8H18.3507V4.2H19.9002V3.8ZM18.204 3.86414L12.6535 9.86058L12.9471 10.1323L18.4975 4.13586L18.204 3.86414ZM12.9605 9.87665L8.47569 3.88021L8.15537 4.11979L12.6401 10.1162L12.9605 9.87665ZM8.31553 3.8H3.04311V4.2H8.31553V3.8ZM5.32162 5.34119H7.74375V4.94119H5.32162V5.34119ZM7.58359 5.26097L18.2795 19.5621L18.5998 19.3225L7.90391 5.0214L7.58359 5.26097ZM18.4396 19.2423H16.0175V19.6423H18.4396V19.2423ZM16.1777 19.3225L5.48179 5.0214L5.16146 5.26097L15.8573 19.5621L16.1777 19.3225Z" fill="white" mask="url(#path-1-outside-1_79_1149)"/>
</g>
</g>
</g>
</g>
</svg>
